
<svg version="1.1" id="Layer_1" xmlns="http://www.w3.org/2000/svg" xmlns:xlink="http://www.w3.org/1999/xlink" x="0px" y="0px"
     viewBox="0 0 218 149" style="enable-background:new 0 0 218 149;" xml:space="preserve">

    <path id="Shape" class="st0" d="M88.41,13.23c0,0,8.14,5.69,8.14,15.98c0,17.79-23.94,37.65-23.94,56.04
	c0,19.97,15.08,33.05,29.69,36.92c2.03,0.48,2.99-1.94,0.36-2.54c-5.87-1.45-12.57-9.32-12.57-21.67c0-11.38,10.77-15.61,15.2-21.18
	c4.43-5.69,3.35-12.83,0.84-14.89c-2.63-2.06-0.84-4.84,3.83-1.57s8.62,9.44,7.18,15.37c-1.8,7.5,0.6,11.86,4.43,12.35
	c3.83,0.48,8.14-1.45,7.78-5.08c-0.48-3.63-2.63-7.5-1.32-7.5c2.75,0,8.62,6.9,8.62,17.79s-8.98,18.52-11.61,21.42
	c-1.68,1.69,0.48,3.99,2.75,2.91c1.08-0.48,3.47-1.94,5.03-3.03c7.06-5.08,18.08-15.37,18.08-34.5c0-19.97-7.54-28.93-15.08-36.31
	c-7.54-7.5-9.46-5.57-7.3-1.94c6.46,11.14,2.51,14.89-2.15,14.89c-5.51,0-5.87-12.59-8.02-22.27C113.55,12.98,94.4,9.35,90.81,9.11
	C87.34,9.23,84.11,11.41,88.41,13.23L88.41,13.23z"/>
</svg>
